<?xml version="1.0" encoding="UTF-8"?>
<svg xmlns="http://www.w3.org/2000/svg" xmlns:xlink="http://www.w3.org/1999/xlink" width="562.5pt" height="374.999991pt" viewBox="0 0 562.5 374.999991" version="1.2">
<defs>
<clipPath id="clip1">
  <path d="M 0 0.167969 L 562 0.167969 L 562 374.832031 L 0 374.832031 Z M 0 0.167969 "/>
</clipPath>
<clipPath id="clip2">
  <path d="M 108 42 L 452 42 L 452 333.457031 L 108 333.457031 Z M 108 42 "/>
</clipPath>
</defs>
<g id="surface1">
<g clip-path="url(#clip1)" clip-rule="nonzero">
<path style=" stroke:none;fill-rule:nonzero;fill:rgb(100%,100%,100%);fill-opacity:1;" d="M 0 0.167969 L 562.5 0.167969 L 562.5 382.667969 L 0 382.667969 Z M 0 0.167969 "/>
<path style=" stroke:none;fill-rule:nonzero;fill:rgb(100%,100%,100%);fill-opacity:1;" d="M 0 0.167969 L 562.5 0.167969 L 562.5 375.167969 L 0 375.167969 Z M 0 0.167969 "/>
<path style=" stroke:none;fill-rule:nonzero;fill:rgb(45.098877%,45.098877%,45.098877%);fill-opacity:1;" d="M 0 0.167969 L 562.5 0.167969 L 562.5 375.167969 L 0 375.167969 Z M 0 0.167969 "/>
</g>
<path style=" stroke:none;fill-rule:nonzero;fill:rgb(85.099792%,85.099792%,85.099792%);fill-opacity:1;" d="M 432.589844 198.917969 C 397.902344 217.820312 363.214844 236.730469 328.527344 255.632812 C 324.292969 257.9375 317.433594 263.535156 312.820312 263.316406 C 306.246094 263.007812 294.574219 253.214844 288.996094 250.109375 C 255.644531 231.519531 222.386719 212.730469 189.480469 193.355469 C 173.707031 184.074219 157.949219 174.730469 142.59375 164.769531 C 134.722656 159.664062 123.3125 154.667969 121.5 145.1875 C 120.484375 106.878906 133.453125 103.824219 153.023438 93.65625 C 182.875 78.140625 208.066406 62.3125 238.777344 48.566406 C 245.796875 45.425781 249.132812 41.695312 255.722656 44.160156 C 266.144531 48.058594 281.125 56.410156 290.636719 62.128906 C 342.511719 93.3125 396.328125 123.644531 448.207031 154.828125 C 449.820312 163.082031 440.5625 161.921875 437.816406 167.078125 C 437.253906 168.132812 437.285156 178.824219 438.027344 179.886719 C 439.84375 182.507812 445.121094 181.664062 447.625 183.9375 C 454.957031 190.597656 439.277344 195.277344 432.589844 198.917969 "/>
<path style=" stroke:none;fill-rule:nonzero;fill:rgb(100%,100%,100%);fill-opacity:1;" d="M 402.117188 199.152344 C 401.679688 199.152344 401.242188 199.261719 400.855469 199.46875 C 398.691406 200.628906 396.542969 201.820312 394.398438 203.007812 C 393.324219 203.605469 392.25 204.199219 391.15625 204.800781 L 381.542969 210.234375 C 375.738281 213.554688 369.488281 217.171875 362.421875 221.292969 C 360.1875 222.621094 357.949219 223.941406 355.714844 225.261719 C 351.683594 227.636719 347.515625 230.097656 343.441406 232.566406 L 333.988281 238.289062 C 332.929688 238.941406 331.871094 239.59375 330.816406 240.242188 C 328.738281 241.523438 326.65625 242.800781 324.589844 244.113281 C 323.507812 244.800781 323.128906 246.230469 323.734375 247.363281 C 324.164062 248.171875 325 248.671875 325.914062 248.671875 C 326.320312 248.671875 326.722656 248.570312 327.082031 248.378906 C 329.234375 247.230469 331.375 246.050781 333.515625 244.871094 C 334.601562 244.273438 335.6875 243.679688 336.792969 243.074219 L 346.417969 237.6875 C 350.570312 235.363281 354.757812 232.957031 358.808594 230.628906 C 361.066406 229.332031 363.328125 228.03125 365.601562 226.734375 C 372.699219 222.605469 378.929688 218.953125 384.65625 215.5625 L 394.128906 209.878906 C 395.152344 209.25 396.179688 208.621094 397.203125 207.992188 C 399.285156 206.722656 401.4375 205.40625 403.542969 204.078125 C 404.71875 203.332031 405.128906 201.785156 404.46875 200.5625 C 404.003906 199.691406 403.101562 199.152344 402.117188 199.152344 Z M 379.308594 208.449219 C 379.585938 208.449219 379.855469 208.40625 380.121094 208.324219 C 381.113281 208.011719 382.136719 207.585938 383.347656 206.988281 C 384.289062 206.527344 385.253906 205.996094 386.304688 205.363281 C 387.082031 204.890625 388.105469 204.25 389.101562 203.53125 C 389.859375 202.988281 390.855469 202.253906 391.816406 201.351562 C 392.511719 200.699219 392.769531 199.726562 392.496094 198.816406 C 392.179688 197.769531 391.199219 197.035156 390.109375 197.035156 C 389.863281 197.035156 389.621094 197.074219 389.386719 197.144531 C 388.136719 197.519531 387 198.007812 386.152344 198.394531 C 385.023438 198.898438 383.957031 199.460938 383.148438 199.898438 C 382.085938 200.484375 381.144531 201.050781 380.269531 201.636719 C 379.148438 202.382812 378.261719 203.058594 377.488281 203.765625 C 376.71875 204.46875 376.425781 205.566406 376.738281 206.5625 C 377.09375 207.691406 378.128906 208.449219 379.308594 208.449219 Z M 440.277344 172.664062 C 439.875 171.785156 438.992188 171.21875 438.027344 171.21875 C 437.667969 171.21875 437.328125 171.292969 436.996094 171.441406 L 436.769531 171.550781 C 435.582031 172.097656 434.410156 172.664062 433.234375 173.234375 C 432.625 173.527344 432.019531 173.820312 431.382812 174.125 L 425.871094 176.882812 C 422.085938 178.777344 418.269531 180.792969 414.894531 182.578125 C 408.875 185.789062 400.988281 190.074219 393.347656 194.753906 C 392.1875 195.46875 391.75 196.933594 392.328125 198.167969 C 392.769531 199.097656 393.71875 199.699219 394.746094 199.699219 C 395.144531 199.699219 395.523438 199.613281 395.882812 199.445312 C 403.992188 195.628906 411.902344 191.398438 417.894531 188.132812 C 421.226562 186.300781 425.003906 184.226562 428.679688 182.097656 L 434.039062 178.992188 L 435.640625 178.027344 C 436.523438 177.5 437.414062 176.96875 438.292969 176.429688 L 438.664062 176.203125 C 438.890625 176.066406 439.117188 175.929688 439.339844 175.789062 C 440.386719 175.132812 440.789062 173.789062 440.277344 172.664062 Z M 420.761719 265.59375 C 386.378906 285.039062 351.996094 304.492188 317.609375 323.941406 C 313.410156 326.3125 306.644531 332.015625 302.023438 331.875 C 295.445312 331.667969 283.617188 322.0625 277.996094 319.042969 C 244.351562 300.984375 210.804688 282.71875 177.59375 263.871094 C 161.679688 254.839844 145.777344 245.742188 130.261719 236.027344 C 122.308594 231.042969 112.636719 227.460938 110.675781 218.007812 C 107.21875 187.199219 115.859375 179.570312 142.195312 164.515625 C 142.328125 164.597656 142.464844 164.683594 142.59375 164.769531 C 157.949219 174.730469 173.707031 184.074219 189.480469 193.355469 C 222.386719 212.730469 255.644531 231.519531 288.996094 250.109375 C 294.574219 253.214844 306.246094 263.007812 312.820312 263.316406 C 317.433594 263.535156 324.292969 257.9375 328.527344 255.632812 C 357.125 240.046875 385.722656 224.460938 414.320312 208.875 C 421.441406 213.003906 428.5625 217.128906 435.679688 221.257812 C 437.425781 229.488281 428.148438 228.472656 425.484375 233.671875 C 424.941406 234.738281 425.140625 245.425781 425.898438 246.480469 C 427.761719 249.070312 433.019531 248.144531 435.558594 250.375 C 442.996094 256.917969 427.394531 261.84375 420.761719 265.59375 "/>
<path style=" stroke:none;fill-rule:nonzero;fill:rgb(65.098572%,65.098572%,65.098572%);fill-opacity:1;" d="M 428.070312 233.644531 L 428.015625 251.132812 C 428.015625 252.054688 427.53125 252.90625 426.734375 253.378906 L 311.652344 321.546875 C 310.070312 322.488281 308.042969 321.542969 307.75 319.730469 C 306.882812 314.355469 305.566406 304.539062 306.542969 299.3125 C 307.789062 292.675781 403.75 242.464844 424.207031 231.828125 C 425.941406 230.929688 433.914062 224.75 428.070312 233.644531 "/>
<g clip-path="url(#clip2)" clip-rule="nonzero">
<path style=" stroke:none;fill-rule:nonzero;fill:rgb(9.01947%,16.079712%,18.429565%);fill-opacity:1;" d="M 267.25 281.121094 C 264.707031 279.804688 261.652344 281.554688 261.5 284.410156 L 260.59375 301.460938 C 260.515625 302.867188 261.199219 304.210938 262.382812 304.976562 L 265.078125 306.722656 C 267.714844 308.433594 271.191406 306.523438 271.164062 303.382812 L 271.484375 287.832031 C 271.472656 286.371094 270.167969 282.636719 268.871094 281.964844 Z M 172.976562 146.457031 C 170.746094 144.695312 168.277344 143.15625 165.832031 141.617188 C 164.394531 140.710938 162.507812 141.652344 162.367188 143.347656 L 160.558594 164.695312 C 160.273438 168 159.601562 168.605469 161.726562 170.523438 C 163.746094 172.34375 166.566406 173.722656 169.226562 175.058594 C 170.722656 175.816406 172.507812 174.820312 172.65625 173.148438 L 174.488281 152.257812 C 174.785156 148.84375 175.472656 148.429688 172.976562 146.457031 Z M 348.085938 205.507812 C 356.054688 201.765625 363.980469 197.925781 371.84375 193.96875 C 379.71875 190.027344 387.554688 186.011719 395.363281 181.949219 C 410.972656 173.800781 426.523438 165.535156 441.839844 156.832031 C 442.433594 156.488281 442.6875 155.738281 442.390625 155.105469 C 442.082031 154.4375 441.285156 154.148438 440.617188 154.457031 L 440.605469 154.460938 C 424.632812 161.890625 408.886719 169.761719 393.207031 177.75 C 385.367188 181.757812 377.554688 185.804688 369.785156 189.9375 C 362 194.046875 354.277344 198.273438 346.605469 202.597656 L 346.582031 202.613281 C 345.851562 203.027344 345.550781 203.945312 345.914062 204.722656 C 346.296875 205.539062 347.265625 205.890625 348.085938 205.507812 Z M 326.691406 216.375 C 331.121094 214.230469 335.457031 211.90625 339.703125 209.425781 C 340.277344 209.09375 340.523438 208.378906 340.261719 207.75 C 339.96875 207.070312 339.183594 206.753906 338.503906 207.042969 L 338.5 207.042969 L 325.0625 212.765625 C 322.824219 213.703125 320.5625 214.578125 318.324219 215.453125 C 317.210938 215.890625 316.085938 216.3125 314.992188 216.679688 C 314.449219 216.855469 313.894531 217.027344 313.449219 217.128906 C 313.386719 217.144531 313.351562 217.148438 313.304688 217.15625 L 313.285156 217.160156 L 313.027344 217.121094 L 312.675781 217.042969 C 311.707031 216.816406 310.589844 216.40625 309.511719 215.984375 C 308.421875 215.554688 307.328125 215.082031 306.238281 214.59375 C 304.054688 213.609375 301.875 212.558594 299.710938 211.476562 C 295.378906 209.300781 291.078125 207.019531 286.800781 204.691406 C 269.691406 195.355469 252.777344 185.566406 235.988281 175.59375 C 219.242188 165.535156 202.398438 155.574219 185.59375 145.59375 L 172.984375 138.109375 L 160.34375 130.667969 L 135.050781 115.820312 C 134.285156 115.371094 133.300781 115.617188 132.835938 116.375 C 132.363281 117.140625 132.605469 118.144531 133.371094 118.617188 L 158.371094 133.953125 L 170.882812 141.605469 L 183.417969 149.210938 C 200.144531 159.347656 216.828125 169.519531 233.617188 179.570312 C 242.015625 184.59375 250.449219 189.558594 258.929688 194.457031 C 267.414062 199.34375 275.917969 204.199219 284.566406 208.828125 C 288.890625 211.144531 293.238281 213.425781 297.65625 215.609375 C 299.867188 216.703125 302.097656 217.761719 304.375 218.777344 C 305.515625 219.277344 306.671875 219.769531 307.855469 220.230469 C 308.90625 220.628906 309.949219 221.015625 311.132812 221.324219 C 310.355469 223.792969 309.742188 226.285156 309.207031 228.8125 C 308.523438 232.09375 308.015625 235.417969 307.726562 238.78125 C 307.464844 242.148438 307.316406 245.539062 307.617188 248.957031 C 307.902344 252.367188 308.488281 255.820312 309.820312 259.085938 C 310.101562 259.785156 310.835938 260.214844 311.609375 260.085938 C 312.5 259.933594 313.101562 259.085938 312.945312 258.195312 L 312.9375 258.132812 C 312.410156 255.054688 312.207031 251.917969 312.136719 248.746094 C 312.148438 247.949219 312.132812 247.152344 312.117188 246.359375 L 312.191406 243.960938 C 312.226562 242.359375 312.332031 240.753906 312.433594 239.144531 C 312.625 235.925781 312.976562 232.703125 313.316406 229.46875 L 314.257812 221.570312 C 314.339844 221.554688 314.425781 221.535156 314.492188 221.515625 C 315.234375 221.324219 315.839844 221.109375 316.453125 220.894531 C 317.664062 220.453125 318.820312 219.984375 319.964844 219.5 C 322.257812 218.53125 324.472656 217.445312 326.691406 216.375 Z M 430.417969 198.300781 C 433.636719 196.632812 437.039062 195.292969 440.210938 193.558594 C 451.515625 187.386719 446.757812 187.035156 441.59375 184.523438 L 441.59375 184.578125 C 441.582031 185.5 441.082031 186.34375 440.28125 186.800781 L 322.550781 253.144531 C 320.957031 254.058594 318.945312 253.082031 318.679688 251.265625 C 317.898438 245.878906 318.320312 236.042969 319.378906 230.832031 C 320.714844 224.292969 415.148438 176.695312 437.304688 165.609375 C 437.445312 165.34375 437.585938 165.097656 437.730469 164.882812 C 439.921875 161.695312 448.089844 160.640625 446.523438 155.660156 C 445.855469 153.535156 436.613281 149.707031 434.785156 148.605469 C 426.027344 143.34375 411.671875 136.46875 402.914062 131.203125 C 364.925781 108.367188 329.472656 88.285156 291.652344 65.179688 C 281.011719 58.675781 266.136719 47.671875 253.691406 45.515625 C 246.019531 44.183594 241.742188 49.371094 234.878906 52.636719 C 223.070312 58.242188 159.339844 89.65625 139.394531 102.640625 C 124.53125 112.316406 122.648438 128.265625 123.078125 145.011719 C 124.800781 153.503906 134.648438 157.933594 141.1875 162.046875 C 151.183594 168.34375 161.164062 174.648438 171.292969 180.734375 C 189.117188 191.441406 207.09375 201.890625 225.128906 212.238281 C 245.71875 224.054688 266.679688 235.277344 287.160156 247.273438 C 293.929688 251.238281 300.875 257.996094 308.378906 260.335938 C 316.332031 262.820312 321.246094 258.027344 327.996094 254.121094 C 361.542969 234.695312 396.003906 216.144531 430.417969 198.300781 Z M 417.132812 186.746094 C 420.734375 184.769531 424.328125 182.789062 427.886719 180.726562 L 433.222656 177.640625 C 434.636719 176.785156 436.054688 175.941406 437.46875 175.078125 C 437.8125 174.867188 438.15625 174.664062 438.5 174.449219 C 438.875 174.214844 439.023438 173.734375 438.835938 173.320312 C 438.632812 172.875 438.105469 172.675781 437.65625 172.882812 C 437.582031 172.914062 437.507812 172.953125 437.429688 172.988281 C 435.636719 173.8125 433.871094 174.6875 432.089844 175.539062 L 426.578125 178.300781 C 422.902344 180.136719 419.269531 182.054688 415.640625 183.976562 C 408.390625 187.84375 401.195312 191.804688 394.179688 196.097656 C 393.710938 196.386719 393.519531 196.984375 393.761719 197.492188 C 394.015625 198.035156 394.664062 198.269531 395.210938 198.015625 C 402.652344 194.511719 409.917969 190.675781 417.132812 186.746094 Z M 378.246094 206.089844 C 378.433594 206.675781 379.054688 207 379.644531 206.8125 C 380.695312 206.480469 381.683594 206.046875 382.648438 205.570312 C 383.621094 205.09375 384.558594 204.570312 385.480469 204.015625 C 386.394531 203.453125 387.308594 202.875 388.183594 202.242188 C 389.0625 201.613281 389.925781 200.957031 390.730469 200.203125 C 390.976562 199.972656 391.082031 199.613281 390.980469 199.273438 C 390.835938 198.785156 390.328125 198.511719 389.84375 198.660156 C 388.785156 198.976562 387.78125 199.394531 386.796875 199.835938 C 385.8125 200.28125 384.855469 200.777344 383.910156 201.289062 C 382.964844 201.804688 382.042969 202.355469 381.144531 202.953125 C 380.25 203.550781 379.371094 204.1875 378.558594 204.929688 C 378.25 205.210938 378.113281 205.660156 378.246094 206.089844 Z M 363.226562 222.652344 C 356.90625 226.414062 350.550781 230.109375 344.257812 233.917969 L 334.820312 239.632812 C 331.691406 241.570312 328.546875 243.476562 325.4375 245.445312 C 325.050781 245.695312 324.910156 246.203125 325.128906 246.617188 C 325.359375 247.054688 325.898438 247.214844 326.332031 246.984375 C 329.582031 245.253906 332.792969 243.457031 336.019531 241.695312 L 345.644531 236.304688 C 352.066406 232.714844 358.417969 229.007812 364.808594 225.363281 C 371.164062 221.667969 377.511719 217.957031 383.839844 214.207031 L 393.300781 208.53125 C 396.433594 206.601562 399.585938 204.703125 402.695312 202.742188 C 403.171875 202.441406 403.347656 201.816406 403.078125 201.308594 C 402.789062 200.777344 402.132812 200.582031 401.601562 200.863281 C 398.359375 202.601562 395.15625 204.40625 391.933594 206.179688 L 382.328125 211.605469 C 375.945312 215.261719 369.582031 218.949219 363.226562 222.652344 Z M 433.121094 200.433594 C 427.8125 203.140625 422.542969 205.933594 417.292969 208.769531 C 419.261719 209.910156 421.226562 211.050781 423.195312 212.191406 C 426.511719 214.117188 433.554688 216.53125 435.988281 219.605469 C 439.253906 223.746094 436.347656 226.78125 433.308594 229.800781 C 431.550781 231.546875 429.398438 231.964844 427.949219 233.570312 C 427.65625 232.265625 426.410156 231.410156 425.121094 231.554688 C 427.625 228.40625 435.972656 226.753906 433.765625 221.980469 C 432.566406 219.386719 423.367188 215.953125 421.027344 214.59375 C 418.695312 213.242188 416.367188 211.890625 414.035156 210.539062 C 400.84375 217.71875 387.769531 225.148438 374.609375 232.320312 C 363.054688 238.617188 351.5 244.914062 339.949219 251.207031 C 332.679688 255.171875 320.640625 264.90625 313.082031 264.90625 C 305.589844 264.90625 298.609375 258.15625 292.65625 254.347656 C 282.371094 247.761719 271.453125 242.128906 260.816406 236.140625 C 241.726562 225.398438 222.695312 214.5625 203.757812 203.546875 C 184.460938 192.316406 165.214844 180.984375 146.335938 169.054688 C 144.632812 167.980469 143.007812 166.988281 141.449219 166.050781 C 136.121094 169.355469 130.953125 172.839844 126.082031 176.613281 C 112.300781 187.292969 110.378906 201.125 112.238281 217.753906 C 114.125 226.621094 199.386719 272.6875 218.101562 283 C 238.070312 294 260.023438 306.648438 279.675781 318.191406 C 285.851562 321.816406 294.507812 330.609375 302.070312 330.292969 C 307.695312 330.054688 312.746094 325.023438 317.398438 322.242188 C 321.921875 319.539062 326.457031 316.855469 331.003906 314.183594 C 330.105469 313.054688 329.539062 312.078125 329.539062 311.394531 C 329.539062 311.265625 329.515625 311.125 329.488281 310.984375 C 328.714844 307.34375 318.390625 300.242188 318.390625 300.242188 L 344.867188 284.214844 C 344.867188 284.214844 353.753906 288.660156 355.570312 295.535156 C 355.65625 295.859375 355.730469 296.191406 355.785156 296.527344 C 355.929688 297.480469 356.246094 298.417969 356.671875 299.328125 C 377.277344 287.574219 398.070312 276.097656 418.855469 264.855469 C 422.191406 263.050781 425.722656 261.589844 429.015625 259.722656 C 432.386719 257.804688 437.824219 255.851562 434.511719 251.5625 C 433.144531 249.792969 430.414062 249.921875 428.015625 249.378906 L 428.015625 246.398438 C 431.132812 248.832031 436.644531 246.414062 438.640625 251.769531 C 440.066406 255.605469 437.21875 258.003906 434.542969 260.1875 C 431.816406 262.414062 389.785156 286.960938 360.085938 304.171875 C 363.574219 307.910156 367.859375 310.464844 367.859375 310.464844 L 350.210938 314.414062 L 344.167969 326.03125 C 344.167969 326.03125 339.324219 322.335938 335.210938 318.535156 C 333.824219 319.332031 332.722656 319.960938 331.988281 320.378906 C 325.027344 324.316406 309.390625 333.460938 302.195312 333.460938 C 293.222656 333.460938 254.625 308.261719 243.367188 302.144531 C 224.746094 292.019531 206.179688 281.796875 187.710938 271.402344 C 167.320312 259.933594 147.285156 247.941406 127.167969 236.007812 C 119.652344 231.550781 111.375 227.542969 109.128906 218.328125 C 107.558594 211.917969 107.90625 203.621094 109.046875 197.136719 C 111.570312 182.851562 122.375 174.660156 134.070312 167.472656 C 135.679688 166.480469 137.300781 165.507812 138.914062 164.527344 C 124.125 155.679688 117.234375 151.5625 121.246094 129.929688 C 121.777344 127.054688 122.53125 124.222656 123.476562 121.476562 C 125.28125 116.21875 127.835938 111.292969 131.15625 107.054688 C 134.296875 103.046875 138.113281 99.652344 142.625 97.1875 C 162.238281 86.453125 182.160156 76.1875 201.90625 65.683594 C 212.675781 59.957031 223.503906 54.324219 234.503906 49.039062 C 240.785156 46.019531 247.445312 42.042969 254.707031 42.125 C 268.0625 42.277344 286.21875 56.78125 297.078125 63.480469 C 334.605469 86.652344 370.472656 106.253906 408.273438 128.976562 C 417.066406 134.261719 425.855469 139.546875 434.648438 144.832031 C 437.765625 146.707031 446.445312 149.953125 448.488281 153.152344 C 452.65625 159.675781 445.9375 162.320312 441.628906 166.464844 C 441.78125 166.804688 441.871094 167.179688 441.863281 167.589844 L 441.679688 179.089844 C 445.410156 181.550781 451.347656 182.359375 451.058594 188.121094 C 450.746094 194.441406 437.507812 198.191406 433.121094 200.433594 Z M 359.203125 274.851562 C 357.9375 275.304688 356.730469 275.855469 355.542969 276.4375 C 354.351562 277.011719 353.1875 277.644531 352.039062 278.292969 C 350.894531 278.941406 349.765625 279.625 348.667969 280.359375 C 347.566406 281.089844 346.488281 281.859375 345.472656 282.734375 C 345.136719 283.027344 344.996094 283.511719 345.160156 283.957031 C 345.375 284.527344 346.011719 284.820312 346.582031 284.609375 C 347.839844 284.144531 349.03125 283.570312 350.203125 282.957031 C 351.375 282.347656 352.515625 281.691406 353.640625 281 C 354.761719 280.304688 355.875 279.59375 356.953125 278.828125 C 358.035156 278.0625 359.101562 277.273438 360.105469 276.386719 C 360.375 276.148438 360.488281 275.757812 360.359375 275.398438 C 360.191406 274.929688 359.671875 274.683594 359.203125 274.851562 Z M 386.753906 263.085938 C 393.792969 259.523438 400.640625 255.636719 407.4375 251.660156 C 410.828125 249.65625 414.214844 247.652344 417.558594 245.566406 L 422.574219 242.441406 C 424.226562 241.367188 425.898438 240.324219 427.53125 239.222656 C 427.898438 238.976562 428.03125 238.492188 427.835938 238.085938 C 427.613281 237.644531 427.082031 237.464844 426.640625 237.679688 C 424.867188 238.546875 423.132812 239.480469 421.378906 240.378906 L 416.175781 243.179688 C 412.707031 245.046875 409.28125 246.988281 405.859375 248.933594 C 399.027344 252.855469 392.25 256.867188 385.660156 261.203125 C 385.207031 261.503906 385.039062 262.105469 385.289062 262.605469 C 385.5625 263.144531 386.214844 263.355469 386.753906 263.085938 Z M 300.421875 297.1875 C 300.441406 296.613281 300.082031 296.070312 299.507812 295.875 C 298.804688 295.640625 298.042969 296.019531 297.804688 296.722656 C 296.945312 299.273438 296.449219 301.8125 296.109375 304.417969 C 295.765625 307.011719 295.652344 309.632812 295.699219 312.265625 C 295.710938 313.578125 295.832031 314.890625 295.941406 316.207031 C 295.992188 316.863281 296.117188 317.515625 296.203125 318.167969 C 296.300781 318.824219 296.382812 319.476562 296.539062 320.121094 C 297.019531 322.726562 297.859375 325.277344 298.953125 327.691406 C 299.246094 328.339844 299.945312 328.746094 300.683594 328.636719 C 301.582031 328.507812 302.203125 327.675781 302.070312 326.777344 L 302.058594 326.6875 C 301.703125 324.234375 301.257812 321.855469 301.011719 319.414062 C 300.746094 316.988281 300.515625 314.554688 300.417969 312.097656 C 300.292969 309.644531 300.257812 307.179688 300.261719 304.699219 C 300.273438 302.230469 300.347656 299.707031 300.421875 297.261719 Z M 403.367188 238.167969 C 412.078125 233.332031 420.8125 228.53125 429.484375 223.625 C 430.242188 223.195312 430.535156 222.238281 430.132812 221.457031 C 429.722656 220.65625 428.738281 220.339844 427.9375 220.753906 C 419.078125 225.3125 410.265625 229.964844 401.433594 234.570312 L 374.996094 248.515625 L 322.191406 276.480469 C 317.789062 278.800781 313.382812 281.121094 308.972656 283.363281 C 307.871094 283.910156 306.753906 284.484375 305.679688 284.984375 C 305.117188 285.253906 304.65625 285.457031 304.289062 285.585938 C 303.941406 285.695312 303.484375 285.757812 302.992188 285.773438 C 300.988281 285.835938 298.617188 285.3125 296.351562 284.671875 C 291.761719 283.34375 287.203125 281.4375 282.722656 279.417969 C 278.242188 277.378906 273.792969 275.210938 269.394531 272.929688 C 260.589844 268.382812 251.941406 263.484375 243.355469 258.480469 C 234.753906 253.492188 226.25 248.316406 217.816406 243.066406 L 217.800781 243.054688 C 217.191406 242.679688 216.390625 242.84375 215.988281 243.441406 C 215.578125 244.058594 215.738281 244.886719 216.351562 245.296875 C 232.925781 256.449219 249.859375 267.023438 267.472656 276.574219 C 271.882812 278.945312 276.335938 281.261719 280.910156 283.378906 C 285.488281 285.484375 290.136719 287.480469 295.109375 288.96875 C 296.355469 289.332031 297.628906 289.660156 298.953125 289.90625 C 300.277344 290.15625 301.644531 290.335938 303.152344 290.296875 C 303.90625 290.269531 304.695312 290.195312 305.542969 289.949219 C 306.359375 289.695312 307.035156 289.375 307.59375 289.117188 C 308.785156 288.574219 309.886719 288.015625 311.023438 287.460938 C 315.511719 285.226562 319.9375 282.9375 324.371094 280.644531 C 333.226562 276.0625 342 271.335938 350.800781 266.652344 C 359.582031 261.945312 368.382812 257.269531 377.132812 252.5 Z M 212.394531 239.609375 C 213.148438 240.105469 213.359375 241.117188 212.863281 241.871094 C 212.394531 242.585938 211.445312 242.808594 210.707031 242.398438 C 203.046875 238.15625 195.445312 233.808594 187.910156 229.351562 C 180.363281 224.914062 172.863281 220.402344 165.386719 215.847656 C 150.453125 206.710938 135.585938 197.464844 120.976562 187.789062 C 120.363281 187.378906 120.195312 186.550781 120.601562 185.9375 C 120.988281 185.351562 121.757812 185.175781 122.359375 185.503906 C 137.710938 193.949219 152.808594 202.820312 167.832031 211.804688 C 175.339844 216.308594 182.816406 220.855469 190.253906 225.480469 C 197.699219 230.085938 205.078125 234.796875 212.394531 239.609375 "/>
</g>
</g>
</svg>
